<svg fill="none" height="24" viewBox="0 0 24 24" width="24" xmlns="http://www.w3.org/2000/svg"><g fill="#0f0f0f"><path d="m8.5 11c.82843 0 1.5-.6716 1.5-1.5 0-.82843-.67157-1.5-1.5-1.5s-1.5.67157-1.5 1.5c0 .8284.67157 1.5 1.5 1.5z"/><path d="m17 9.5c0 .8284-.6716 1.5-1.5 1.5s-1.5-.6716-1.5-1.5c0-.82843.6716-1.5 1.5-1.5s1.5.67157 1.5 1.5z"/><path d="m8.88875 13.5414c-.25053-.4855-.84565-.6807-1.33574-.4356-.49398.247-.69421.8477-.44722 1.3416.08246.1644.18747.3185.29755.4653.18281.2438.45876.5577.84718.8684.78953.6316 2.00678 1.2191 3.74968 1.2191s2.9602-.5875 3.7497-1.2191c.3884-.3107.6644-.6246.8472-.8684.1105-.1473.211-.3014.297-.4642.2446-.4875.0411-1.0988-.4467-1.3427-.4901-.2451-1.0852-.0499-1.3357.4356-.0138.0249-.202.3506-.6112.678-.4604.3683-1.2432.7808-2.5003.7808s-2.03982-.4125-2.50029-.7808c-.4092-.3274-.59736-.6531-.61116-.678z"/><path clip-rule="evenodd" d="m12 23c6.0751 0 11-4.9249 11-11 0-6.07513-4.9249-11-11-11-6.07513 0-11 4.92487-11 11 0 6.0751 4.92487 11 11 11zm0-2.0068c-4.96679 0-8.99317-4.0264-8.99317-8.9932 0-4.96679 4.02638-8.99317 8.99317-8.99317 4.9668 0 8.9932 4.02638 8.9932 8.99317 0 4.9668-4.0264 8.9932-8.9932 8.9932z" fill-rule="evenodd"/></g></svg>